<?xml version="1.0" encoding="utf-8"?>
<!-- Generator: Adobe Illustrator 19.1.1, SVG Export Plug-In . SVG Version: 6.00 Build 0)  -->
<svg version="1.1"  xmlns="http://www.w3.org/2000/svg" xmlns:xlink="http://www.w3.org/1999/xlink" x="0px" y="0px"
	 viewBox="0 0 48 48" enable-background="new 0 0 48 48" xml:space="preserve">
<g>
	<path fill="#B3E5FC" d="M34.4,43H13.6C8.9,43,5,39.1,5,34.4V13.6C5,8.9,8.9,5,13.6,5h20.7c4.8,0,8.6,3.9,8.6,8.6v20.7
		C43,39.1,39.1,43,34.4,43z"/>
</g>
<path fill="#03A9F4" d="M43,16h-2v6h2V16z M43,26h-2v6h2V26z M7,16H5v6h2V16z M7,26H5v6h2V26z M16,7h6V5h-6V7z M26,7h6V5h-6V7z
	 M16,43h6v-2h-6V43z M27,43h6v-2h-6V43z M12,42.8c-3.5-0.7-6.2-3.4-6.8-6.8h2.1c0.6,2.4,2.4,4.2,4.8,4.8V42.8z M12,5.2v2.1
	C9.6,7.8,7.8,9.6,7.2,12H5.2C5.8,8.5,8.5,5.8,12,5.2z M36,7.2V5.2c3.5,0.7,6.2,3.4,6.8,6.8h-2.1C40.2,9.6,38.4,7.8,36,7.2z M40.8,36
	h2.1c-0.7,3.5-3.4,6.2-6.8,6.8v-2.1C38.4,40.2,40.2,38.4,40.8,36z"/>
</svg>
